<svg xmlns="http://www.w3.org/2000/svg" xmlns:xlink="http://www.w3.org/1999/xlink" width="500" zoomAndPan="magnify" viewBox="0 0 375 374.999991" height="500" preserveAspectRatio="xMidYMid meet" version="1.2"><g id="68afb067b9"><path style=" stroke:none;fill-rule:nonzero;fill:#67bdcc;fill-opacity:1;" d="M 187.5 0 C 83.945312 0 0 83.945312 0 187.5 C 0 291.054688 83.945312 375 187.5 375 C 291.054688 375 375 291.054688 375 187.5 C 375 83.945312 291.054688 0 187.5 0 Z M 262.5 206.25 L 157.761719 206.25 L 187.5 235.988281 C 194.8125 243.300781 194.8125 255.1875 187.5 262.5 C 180.1875 269.8125 168.300781 269.8125 160.988281 262.5 L 99.242188 200.757812 C 91.914062 193.425781 91.914062 181.554688 99.242188 174.242188 L 160.988281 112.5 C 168.300781 105.1875 180.1875 105.1875 187.5 112.5 C 194.8125 119.8125 194.8125 131.699219 187.5 139.011719 L 157.761719 168.75 L 262.5 168.75 C 272.851562 168.75 281.25 177.148438 281.25 187.5 C 281.25 197.851562 272.851562 206.25 262.5 206.25 Z M 262.5 206.25 "/></g></svg>