<svg xmlns="http://www.w3.org/2000/svg" xmlns:xlink="http://www.w3.org/1999/xlink" width="500" zoomAndPan="magnify" viewBox="0 0 375 374.999991" height="500" preserveAspectRatio="xMidYMid meet" version="1.2"><defs><clipPath id="d488d5b404"><path d="M 2.8125 0 L 372 0 L 372 375 L 2.8125 375 Z M 2.8125 0 "/></clipPath></defs><g id="8ba83a4c8f"><g clip-rule="nonzero" clip-path="url(#d488d5b404)"><path style=" stroke:none;fill-rule:evenodd;fill:#545454;fill-opacity:1;" d="M 371.316406 234.238281 C 350.535156 314.992188 277.242188 374.660156 190.003906 374.660156 C 86.609375 374.660156 2.789062 290.84375 2.789062 187.445312 C 2.789062 84.050781 86.609375 0.234375 190.003906 0.234375 C 192.449219 0.234375 194.882812 0.28125 197.304688 0.375 C 200.703125 0.507812 203.5 2.769531 204.335938 6.066406 C 205.171875 9.363281 203.789062 12.6875 200.859375 14.421875 C 161.730469 37.597656 135.492188 80.238281 135.492188 129.015625 C 135.492188 202.523438 195.082031 262.113281 268.59375 262.113281 C 303.4375 262.113281 335.148438 248.722656 358.871094 226.808594 C 361.371094 224.5 364.953125 224.125 367.875 225.875 C 370.792969 227.621094 372.160156 230.949219 371.316406 234.242188 Z M 371.316406 234.238281 "/></g></g></svg>