<svg xmlns="http://www.w3.org/2000/svg" xmlns:xlink="http://www.w3.org/1999/xlink" width="500" zoomAndPan="magnify" viewBox="0 0 375 374.999991" height="500" preserveAspectRatio="xMidYMid meet" version="1.2"><g id="4a955b0887"><path style=" stroke:none;fill-rule:nonzero;fill:#545454;fill-opacity:1;" d="M 187.410156 -0.0625 C 83.875 -0.0625 -0.046875 83.859375 -0.046875 187.394531 C -0.046875 290.925781 83.875 374.863281 187.410156 374.863281 C 290.941406 374.863281 374.878906 290.925781 374.878906 187.394531 C 374.878906 83.859375 290.941406 -0.0625 187.410156 -0.0625 Z M 317.460938 201.539062 L 308.554688 211.328125 C 303.207031 216.675781 295.1875 217.578125 288.957031 212.230469 L 286.28125 209.558594 L 286.28125 294.164062 C 286.28125 300.398438 281.824219 304.855469 275.589844 304.855469 L 215.910156 304.855469 L 215.910156 220.234375 C 215.910156 214.902344 212.351562 210.441406 206.121094 210.441406 L 168.710938 210.441406 C 163.367188 210.441406 158.90625 214.003906 158.90625 220.234375 L 158.90625 303.972656 L 100.128906 303.972656 C 93.894531 303.972656 89.433594 299.511719 89.433594 293.277344 L 89.433594 208.65625 L 85.875 211.328125 C 79.644531 216.675781 71.625 215.789062 66.277344 210.441406 L 57.371094 200.652344 C 52.027344 194.402344 52.925781 186.398438 58.257812 181.054688 L 89.433594 153.4375 L 125.957031 120.488281 L 157.132812 92.871094 L 179.402344 73.273438 C 183.847656 68.828125 191.867188 68.828125 196.328125 73.273438 L 219.484375 93.757812 L 238.183594 109.796875 L 238.183594 96.429688 C 238.183594 91.085938 241.742188 86.640625 247.988281 86.640625 L 264.898438 86.640625 C 270.246094 86.640625 274.703125 90.199219 274.703125 96.429688 L 274.703125 142.746094 L 286.28125 154.339844 L 316.558594 181.054688 C 321.902344 186.398438 322.804688 194.402344 317.460938 201.539062 Z M 317.460938 201.539062 "/></g></svg>