<svg xmlns="http://www.w3.org/2000/svg" xmlns:xlink="http://www.w3.org/1999/xlink" width="500" zoomAndPan="magnify" viewBox="0 0 375 374.999991" height="500" preserveAspectRatio="xMidYMid meet" version="1.2"><defs><clipPath id="e1c2710d4d"><path d="M 174 9.546875 L 201 9.546875 L 201 96 L 174 96 Z M 174 9.546875 "/></clipPath><clipPath id="eaca950101"><path d="M 279 174 L 365.796875 174 L 365.796875 201 L 279 201 Z M 279 174 "/></clipPath><clipPath id="8a8c98d0f3"><path d="M 174 279 L 201 279 L 201 365.796875 L 174 365.796875 Z M 174 279 "/></clipPath><clipPath id="7e39802077"><path d="M 9.546875 174 L 96 174 L 96 201 L 9.546875 201 Z M 9.546875 174 "/></clipPath></defs><g id="c2beae8542"><path style=" stroke:none;fill-rule:nonzero;fill:#67bdcc;fill-opacity:1;" d="M 187.460938 237.292969 C 159.992188 237.292969 137.652344 214.953125 137.652344 187.492188 C 137.652344 160.027344 159.992188 137.6875 187.460938 137.6875 C 214.917969 137.6875 237.261719 160.027344 237.261719 187.492188 C 237.261719 214.953125 214.917969 237.292969 187.460938 237.292969 Z M 187.460938 111.46875 C 145.539062 111.46875 111.433594 145.574219 111.433594 187.492188 C 111.433594 229.410156 145.539062 263.511719 187.460938 263.511719 C 229.375 263.511719 263.480469 229.410156 263.480469 187.492188 C 263.480469 145.574219 229.375 111.46875 187.460938 111.46875 "/><g clip-rule="nonzero" clip-path="url(#e1c2710d4d)"><path style=" stroke:none;fill-rule:nonzero;fill:#67bdcc;fill-opacity:1;" d="M 187.460938 95.167969 C 194.699219 95.167969 200.566406 89.300781 200.566406 82.0625 L 200.566406 22.683594 C 200.566406 15.445312 194.699219 9.574219 187.460938 9.574219 C 180.214844 9.574219 174.347656 15.445312 174.347656 22.683594 L 174.347656 82.0625 C 174.347656 89.300781 180.214844 95.167969 187.460938 95.167969 "/></g><path style=" stroke:none;fill-rule:nonzero;fill:#67bdcc;fill-opacity:1;" d="M 262.003906 126.050781 C 265.359375 126.050781 268.714844 124.773438 271.273438 122.210938 L 313.265625 80.21875 C 318.386719 75.097656 318.386719 66.800781 313.265625 61.679688 C 308.148438 56.558594 299.847656 56.558594 294.726562 61.679688 L 252.734375 103.671875 C 247.617188 108.789062 247.617188 117.089844 252.734375 122.210938 C 255.292969 124.773438 258.648438 126.050781 262.003906 126.050781 "/><g clip-rule="nonzero" clip-path="url(#eaca950101)"><path style=" stroke:none;fill-rule:nonzero;fill:#67bdcc;fill-opacity:1;" d="M 352.273438 174.382812 L 292.886719 174.382812 C 285.644531 174.382812 279.777344 180.25 279.777344 187.492188 C 279.777344 194.730469 285.644531 200.601562 292.886719 200.601562 L 352.273438 200.601562 C 359.519531 200.601562 365.382812 194.730469 365.382812 187.492188 C 365.382812 180.25 359.519531 174.382812 352.273438 174.382812 "/></g><path style=" stroke:none;fill-rule:nonzero;fill:#67bdcc;fill-opacity:1;" d="M 271.273438 252.769531 C 266.15625 247.648438 257.851562 247.652344 252.734375 252.769531 C 247.617188 257.890625 247.617188 266.191406 252.734375 271.308594 L 294.726562 313.300781 C 297.289062 315.863281 300.644531 317.144531 304 317.144531 C 307.355469 317.144531 310.707031 315.859375 313.265625 313.300781 C 318.386719 308.179688 318.386719 299.882812 313.265625 294.761719 L 271.273438 252.769531 "/><g clip-rule="nonzero" clip-path="url(#8a8c98d0f3)"><path style=" stroke:none;fill-rule:nonzero;fill:#67bdcc;fill-opacity:1;" d="M 187.460938 279.808594 C 180.214844 279.808594 174.347656 285.679688 174.347656 292.921875 L 174.347656 352.308594 C 174.347656 359.550781 180.214844 365.417969 187.460938 365.417969 C 194.699219 365.417969 200.566406 359.550781 200.566406 352.308594 L 200.566406 292.921875 C 200.566406 285.679688 194.699219 279.808594 187.460938 279.808594 "/></g><path style=" stroke:none;fill-rule:nonzero;fill:#67bdcc;fill-opacity:1;" d="M 103.640625 252.769531 L 61.648438 294.761719 C 56.527344 299.882812 56.527344 308.179688 61.648438 313.300781 C 64.207031 315.863281 67.5625 317.144531 70.914062 317.144531 C 74.269531 317.144531 77.625 315.859375 80.183594 313.300781 L 122.175781 271.308594 C 127.296875 266.191406 127.296875 257.890625 122.175781 252.769531 C 117.058594 247.648438 108.757812 247.652344 103.640625 252.769531 "/><g clip-rule="nonzero" clip-path="url(#7e39802077)"><path style=" stroke:none;fill-rule:nonzero;fill:#67bdcc;fill-opacity:1;" d="M 95.136719 187.492188 C 95.136719 180.25 89.265625 174.382812 82.027344 174.382812 L 22.632812 174.382812 C 15.394531 174.382812 9.523438 180.25 9.523438 187.492188 C 9.523438 194.730469 15.394531 200.601562 22.632812 200.601562 L 82.027344 200.601562 C 89.265625 200.601562 95.136719 194.730469 95.136719 187.492188 "/></g><path style=" stroke:none;fill-rule:nonzero;fill:#67bdcc;fill-opacity:1;" d="M 103.640625 122.210938 C 106.199219 124.773438 109.550781 126.050781 112.90625 126.050781 C 116.261719 126.050781 119.617188 124.773438 122.175781 122.210938 C 127.296875 117.089844 127.296875 108.789062 122.175781 103.671875 L 80.183594 61.679688 C 75.066406 56.558594 66.765625 56.558594 61.648438 61.679688 C 56.527344 66.800781 56.527344 75.097656 61.648438 80.21875 L 103.640625 122.210938 "/></g></svg>