<svg xmlns="http://www.w3.org/2000/svg" xmlns:xlink="http://www.w3.org/1999/xlink" width="500" zoomAndPan="magnify" viewBox="0 0 375 374.999991" height="500" preserveAspectRatio="xMidYMid meet" version="1.2"><defs><clipPath id="40b734caf0"><path d="M 0 110.546875 L 375 110.546875 L 375 264.296875 L 0 264.296875 Z M 0 110.546875 "/></clipPath></defs><g id="f03e71de13"><g clip-rule="nonzero" clip-path="url(#40b734caf0)"><path style=" stroke:none;fill-rule:nonzero;fill:#1b447a;fill-opacity:1;" d="M 298.03125 264.238281 L 77.082031 264.238281 C 34.589844 264.238281 0.140625 229.820312 0.140625 187.371094 C 0.140625 144.921875 34.589844 110.507812 77.082031 110.507812 L 298.03125 110.507812 C 340.523438 110.507812 374.972656 144.921875 374.972656 187.371094 C 374.972656 229.820312 340.523438 264.238281 298.03125 264.238281 Z M 298.03125 264.238281 "/></g><path style=" stroke:none;fill-rule:nonzero;fill:#ffffff;fill-opacity:1;" d="M 148.34375 187.371094 C 148.34375 188.488281 148.316406 189.601562 148.261719 190.71875 C 148.207031 191.832031 148.125 192.945312 148.011719 194.054688 C 147.902344 195.167969 147.765625 196.273438 147.601562 197.378906 C 147.4375 198.484375 147.25 199.582031 147.03125 200.675781 C 146.8125 201.773438 146.566406 202.859375 146.296875 203.945312 C 146.023438 205.027344 145.726562 206.101562 145.402344 207.167969 C 145.078125 208.238281 144.726562 209.296875 144.351562 210.347656 C 143.976562 211.398438 143.574219 212.441406 143.144531 213.472656 C 142.71875 214.503906 142.265625 215.523438 141.789062 216.53125 C 141.308594 217.542969 140.808594 218.539062 140.28125 219.523438 C 139.753906 220.507812 139.203125 221.476562 138.628906 222.433594 C 138.054688 223.390625 137.457031 224.335938 136.835938 225.261719 C 136.214844 226.191406 135.574219 227.101562 134.90625 228 C 134.242188 228.898438 133.554688 229.777344 132.84375 230.640625 C 132.136719 231.5 131.40625 232.347656 130.65625 233.175781 C 129.90625 234 129.136719 234.808594 128.347656 235.597656 C 127.554688 236.386719 126.746094 237.15625 125.917969 237.90625 C 125.089844 238.65625 124.246094 239.386719 123.382812 240.09375 C 122.519531 240.800781 121.636719 241.488281 120.742188 242.152344 C 119.84375 242.816406 118.929688 243.460938 118 244.082031 C 117.070312 244.699219 116.128906 245.296875 115.167969 245.871094 C 114.210938 246.445312 113.238281 246.996094 112.253906 247.519531 C 111.269531 248.046875 110.269531 248.550781 109.261719 249.027344 C 108.25 249.503906 107.230469 249.957031 106.199219 250.382812 C 105.164062 250.808594 104.125 251.210938 103.070312 251.585938 C 102.019531 251.964844 100.957031 252.3125 99.890625 252.636719 C 98.820312 252.960938 97.742188 253.257812 96.660156 253.53125 C 95.574219 253.800781 94.484375 254.046875 93.390625 254.265625 C 92.292969 254.480469 91.195312 254.671875 90.089844 254.835938 C 88.984375 255 87.875 255.136719 86.761719 255.246094 C 85.652344 255.355469 84.539062 255.4375 83.421875 255.492188 C 82.304688 255.546875 81.1875 255.574219 80.070312 255.574219 C 78.953125 255.574219 77.835938 255.546875 76.722656 255.492188 C 75.605469 255.4375 74.492188 255.355469 73.378906 255.246094 C 72.269531 255.136719 71.160156 255 70.054688 254.835938 C 68.949219 254.671875 67.847656 254.480469 66.753906 254.265625 C 65.65625 254.046875 64.566406 253.800781 63.484375 253.53125 C 62.398438 253.257812 61.324219 252.960938 60.253906 252.636719 C 59.183594 252.3125 58.125 251.964844 57.070312 251.585938 C 56.019531 251.210938 54.976562 250.808594 53.945312 250.382812 C 52.914062 249.957031 51.890625 249.503906 50.882812 249.027344 C 49.871094 248.550781 48.875 248.046875 47.890625 247.519531 C 46.902344 246.996094 45.933594 246.445312 44.972656 245.871094 C 44.015625 245.296875 43.070312 244.699219 42.140625 244.082031 C 41.214844 243.460938 40.300781 242.816406 39.402344 242.152344 C 38.503906 241.488281 37.625 240.800781 36.761719 240.09375 C 35.898438 239.386719 35.050781 238.65625 34.222656 237.90625 C 33.394531 237.15625 32.585938 236.386719 31.796875 235.597656 C 31.007812 234.808594 30.238281 234 29.484375 233.175781 C 28.734375 232.347656 28.007812 231.5 27.296875 230.640625 C 26.589844 229.777344 25.902344 228.898438 25.234375 228 C 24.570312 227.101562 23.925781 226.191406 23.304688 225.261719 C 22.6875 224.335938 22.089844 223.390625 21.515625 222.433594 C 20.9375 221.476562 20.390625 220.507812 19.863281 219.523438 C 19.335938 218.539062 18.832031 217.542969 18.355469 216.53125 C 17.878906 215.523438 17.425781 214.503906 16.996094 213.472656 C 16.570312 212.441406 16.167969 211.398438 15.792969 210.347656 C 15.414062 209.296875 15.066406 208.238281 14.742188 207.167969 C 14.417969 206.101562 14.117188 205.027344 13.847656 203.945312 C 13.574219 202.859375 13.332031 201.773438 13.113281 200.675781 C 12.894531 199.582031 12.703125 198.484375 12.539062 197.378906 C 12.375 196.273438 12.238281 195.167969 12.128906 194.054688 C 12.019531 192.945312 11.9375 191.832031 11.882812 190.71875 C 11.828125 189.601562 11.800781 188.488281 11.800781 187.371094 C 11.800781 186.253906 11.828125 185.140625 11.882812 184.023438 C 11.9375 182.910156 12.019531 181.796875 12.128906 180.6875 C 12.238281 179.574219 12.375 178.46875 12.539062 177.363281 C 12.703125 176.261719 12.894531 175.160156 13.113281 174.066406 C 13.332031 172.972656 13.574219 171.882812 13.847656 170.800781 C 14.117188 169.714844 14.417969 168.640625 14.742188 167.574219 C 15.066406 166.503906 15.414062 165.445312 15.792969 164.394531 C 16.167969 163.34375 16.570312 162.300781 16.996094 161.269531 C 17.425781 160.238281 17.878906 159.21875 18.355469 158.210938 C 18.832031 157.203125 19.335938 156.203125 19.863281 155.21875 C 20.390625 154.234375 20.9375 153.265625 21.515625 152.308594 C 22.089844 151.351562 22.6875 150.40625 23.304688 149.480469 C 23.925781 148.550781 24.570312 147.640625 25.234375 146.742188 C 25.902344 145.847656 26.589844 144.964844 27.296875 144.105469 C 28.007812 143.242188 28.734375 142.394531 29.484375 141.570312 C 30.238281 140.742188 31.007812 139.933594 31.796875 139.144531 C 32.585938 138.355469 33.394531 137.585938 34.222656 136.835938 C 35.050781 136.085938 35.898438 135.359375 36.761719 134.648438 C 37.625 133.941406 38.503906 133.253906 39.402344 132.589844 C 40.300781 131.925781 41.214844 131.28125 42.140625 130.664062 C 43.070312 130.042969 44.015625 129.445312 44.972656 128.871094 C 45.933594 128.296875 46.902344 127.746094 47.890625 127.222656 C 48.875 126.695312 49.871094 126.195312 50.882812 125.714844 C 51.890625 125.238281 52.914062 124.785156 53.945312 124.359375 C 54.976562 123.933594 56.019531 123.53125 57.070312 123.15625 C 58.125 122.777344 59.183594 122.429688 60.253906 122.105469 C 61.324219 121.78125 62.398438 121.484375 63.484375 121.210938 C 64.566406 120.941406 65.65625 120.695312 66.753906 120.480469 C 67.847656 120.261719 68.949219 120.070312 70.054688 119.90625 C 71.160156 119.742188 72.269531 119.605469 73.378906 119.496094 C 74.492188 119.386719 75.605469 119.304688 76.722656 119.25 C 77.835938 119.195312 78.953125 119.167969 80.070312 119.167969 C 81.1875 119.167969 82.304688 119.195312 83.421875 119.25 C 84.539062 119.304688 85.652344 119.386719 86.761719 119.496094 C 87.875 119.605469 88.984375 119.742188 90.089844 119.90625 C 91.195312 120.070312 92.292969 120.261719 93.390625 120.480469 C 94.484375 120.695312 95.574219 120.941406 96.660156 121.210938 C 97.742188 121.484375 98.820312 121.78125 99.890625 122.105469 C 100.957031 122.429688 102.019531 122.777344 103.070312 123.15625 C 104.125 123.53125 105.164062 123.933594 106.199219 124.359375 C 107.230469 124.785156 108.25 125.238281 109.261719 125.714844 C 110.269531 126.195312 111.269531 126.695312 112.253906 127.222656 C 113.238281 127.746094 114.210938 128.296875 115.167969 128.871094 C 116.128906 129.445312 117.070312 130.042969 118 130.664062 C 118.929688 131.28125 119.84375 131.925781 120.742188 132.589844 C 121.636719 133.253906 122.519531 133.941406 123.382812 134.648438 C 124.246094 135.359375 125.089844 136.085938 125.917969 136.835938 C 126.746094 137.585938 127.554688 138.355469 128.347656 139.144531 C 129.136719 139.933594 129.90625 140.742188 130.65625 141.570312 C 131.40625 142.394531 132.136719 143.242188 132.84375 144.105469 C 133.554688 144.964844 134.242188 145.847656 134.90625 146.742188 C 135.574219 147.640625 136.214844 148.550781 136.835938 149.480469 C 137.457031 150.40625 138.054688 151.351562 138.628906 152.308594 C 139.203125 153.265625 139.753906 154.234375 140.28125 155.21875 C 140.808594 156.203125 141.308594 157.203125 141.789062 158.210938 C 142.265625 159.21875 142.71875 160.238281 143.144531 161.269531 C 143.574219 162.300781 143.976562 163.34375 144.351562 164.394531 C 144.726562 165.445312 145.078125 166.503906 145.402344 167.574219 C 145.726562 168.640625 146.023438 169.714844 146.296875 170.800781 C 146.566406 171.882812 146.8125 172.972656 147.03125 174.066406 C 147.25 175.160156 147.4375 176.261719 147.601562 177.363281 C 147.765625 178.46875 147.902344 179.574219 148.011719 180.6875 C 148.125 181.796875 148.207031 182.910156 148.261719 184.023438 C 148.316406 185.140625 148.34375 186.253906 148.34375 187.371094 Z M 148.34375 187.371094 "/><path style=" stroke:none;fill-rule:nonzero;fill:#f2f2f2;fill-opacity:1;" d="M 173.445312 207.15625 L 173.445312 167.535156 L 182.46875 167.535156 C 195.625 193.046875 197.617188 196.910156 198.261719 198.75 L 198.363281 198.75 C 197.980469 193.851562 197.917969 187.402344 197.917969 180.941406 L 197.917969 167.535156 L 204.367188 167.535156 L 204.367188 207.15625 L 195.785156 207.15625 C 181.679688 179.265625 180.324219 176.335938 179.648438 174.792969 L 179.585938 174.792969 C 179.878906 179.839844 179.878906 186.613281 179.878906 193.699219 L 179.878906 207.15625 Z M 173.445312 207.15625 "/><path style=" stroke:none;fill-rule:nonzero;fill:#f2f2f2;fill-opacity:1;" d="M 213.671875 167.542969 L 220.675781 167.542969 L 220.675781 207.167969 L 213.671875 207.167969 Z M 213.671875 167.542969 "/><path style=" stroke:none;fill-rule:nonzero;fill:#f2f2f2;fill-opacity:1;" d="M 260.792969 207.15625 L 255.578125 207.15625 C 255.324219 205.917969 255.125 204.140625 255.03125 202.179688 C 252.980469 206.332031 249.03125 207.742188 243.828125 207.742188 C 233.457031 207.742188 228.144531 199.03125 228.144531 187.574219 C 228.144531 176.164062 234.429688 167.007812 245.90625 167.007812 C 254.992188 167.007812 259.832031 172.015625 260.882812 178.761719 L 254.011719 178.761719 C 253.125 175.652344 251.0625 172.691406 245.535156 172.691406 C 238.199219 172.691406 235.359375 179.507812 235.359375 187.613281 C 235.359375 195.46875 238.238281 202.101562 245.320312 202.101562 C 252.164062 202.101562 253.871094 197.355469 253.871094 191.5 L 253.871094 191.289062 L 244.90625 191.289062 L 244.90625 185.300781 L 260.8125 185.300781 C 260.792969 196.902344 260.792969 206.148438 260.792969 207.15625 Z M 260.792969 207.15625 "/><path style=" stroke:none;fill-rule:nonzero;fill:#f2f2f2;fill-opacity:1;" d="M 269.109375 167.542969 L 276.113281 167.542969 L 276.113281 183.546875 L 291.988281 183.546875 L 291.988281 167.542969 L 299 167.542969 L 299 207.167969 L 291.988281 207.167969 L 291.988281 189.390625 L 276.113281 189.390625 L 276.113281 207.167969 L 269.109375 207.167969 Z M 269.109375 167.542969 "/><path style=" stroke:none;fill-rule:nonzero;fill:#f2f2f2;fill-opacity:1;" d="M 315.433594 173.390625 L 304.386719 173.390625 L 304.386719 167.542969 L 333.539062 167.542969 L 333.539062 173.390625 L 322.484375 173.390625 L 322.484375 207.167969 L 315.433594 207.167969 Z M 315.433594 173.390625 "/><path style=" stroke:none;fill-rule:nonzero;fill:#1b447a;fill-opacity:1;" d="M 54.121094 192.035156 C 49.230469 179.253906 51.929688 165.433594 60.011719 155.542969 C 58.648438 155.863281 57.292969 156.277344 55.949219 156.792969 C 39.296875 163.152344 30.949219 181.808594 37.328125 198.445312 C 43.691406 215.082031 62.367188 223.421875 79.019531 217.050781 C 80.363281 216.535156 81.648438 215.941406 82.878906 215.285156 C 70.257812 213.304688 59.023438 204.816406 54.121094 192.035156 Z M 54.121094 192.035156 "/><path style=" stroke:none;fill-rule:nonzero;fill:#1b447a;fill-opacity:1;" d="M 96.015625 172.429688 L 104.667969 175.167969 L 96.015625 177.902344 L 93.277344 186.535156 L 90.550781 177.902344 L 81.902344 175.167969 L 90.550781 172.429688 L 93.277344 163.800781 Z M 96.015625 172.429688 "/><path style=" stroke:none;fill-rule:nonzero;fill:#1b447a;fill-opacity:1;" d="M 119.207031 180.890625 L 124.949219 182.707031 L 119.207031 184.523438 L 117.398438 190.25 L 115.582031 184.523438 L 109.851562 182.707031 L 115.582031 180.890625 L 117.398438 175.167969 Z M 119.207031 180.890625 "/><path style=" stroke:none;fill-rule:nonzero;fill:#1b447a;fill-opacity:1;" d="M 105.941406 191.792969 L 109.984375 193.066406 L 105.941406 194.347656 L 104.667969 198.375 L 103.382812 194.347656 L 99.351562 193.066406 L 103.382812 191.792969 L 104.667969 187.753906 Z M 105.941406 191.792969 "/></g></svg>