<svg xmlns="http://www.w3.org/2000/svg" xmlns:xlink="http://www.w3.org/1999/xlink" width="500" zoomAndPan="magnify" viewBox="0 0 375 374.999991" height="500" preserveAspectRatio="xMidYMid meet" version="1.2"><defs><clipPath id="14699e6eba"><path d="M 0 110.625 L 375 110.625 L 375 264.375 L 0 264.375 Z M 0 110.625 "/></clipPath></defs><g id="92b81d6344"><g clip-rule="nonzero" clip-path="url(#14699e6eba)"><path style=" stroke:none;fill-rule:nonzero;fill:#ffdd00;fill-opacity:1;" d="M 297.953125 264.441406 L 77.140625 264.441406 C 34.675781 264.441406 0.246094 230.011719 0.246094 187.546875 C 0.246094 145.082031 34.675781 110.652344 77.140625 110.652344 L 297.964844 110.652344 C 340.425781 110.652344 374.855469 145.082031 374.855469 187.546875 C 374.847656 230.011719 340.425781 264.441406 297.953125 264.441406 Z M 297.953125 264.441406 "/></g><path style=" stroke:none;fill-rule:nonzero;fill:#ffffff;fill-opacity:1;" d="M 364.742188 187.546875 C 364.742188 188.664062 364.714844 189.78125 364.660156 190.894531 C 364.605469 192.011719 364.523438 193.125 364.414062 194.234375 C 364.304688 195.347656 364.167969 196.453125 364.003906 197.558594 C 363.839844 198.664062 363.648438 199.761719 363.433594 200.859375 C 363.214844 201.953125 362.96875 203.042969 362.699219 204.125 C 362.425781 205.207031 362.128906 206.285156 361.804688 207.351562 C 361.480469 208.421875 361.128906 209.480469 360.753906 210.53125 C 360.378906 211.582031 359.976562 212.625 359.550781 213.65625 C 359.121094 214.6875 358.667969 215.707031 358.191406 216.71875 C 357.714844 217.726562 357.214844 218.722656 356.6875 219.710938 C 356.160156 220.695312 355.609375 221.664062 355.035156 222.621094 C 354.460938 223.582031 353.863281 224.523438 353.246094 225.453125 C 352.625 226.378906 351.980469 227.292969 351.316406 228.191406 C 350.652344 229.085938 349.964844 229.96875 349.257812 230.832031 C 348.546875 231.691406 347.820312 232.539062 347.070312 233.367188 C 346.320312 234.191406 345.550781 235 344.757812 235.792969 C 343.96875 236.582031 343.160156 237.351562 342.335938 238.101562 C 341.507812 238.851562 340.660156 239.578125 339.796875 240.289062 C 338.933594 240.996094 338.054688 241.683594 337.160156 242.347656 C 336.261719 243.011719 335.347656 243.65625 334.421875 244.277344 C 333.492188 244.894531 332.550781 245.492188 331.589844 246.066406 C 330.632812 246.640625 329.664062 247.191406 328.679688 247.71875 C 327.691406 248.246094 326.695312 248.746094 325.6875 249.222656 C 324.675781 249.703125 323.65625 250.152344 322.625 250.582031 C 321.59375 251.007812 320.550781 251.410156 319.5 251.785156 C 318.449219 252.164062 317.390625 252.511719 316.320312 252.835938 C 315.253906 253.160156 314.175781 253.457031 313.09375 253.730469 C 312.011719 254 310.921875 254.246094 309.828125 254.464844 C 308.730469 254.679688 307.632812 254.871094 306.527344 255.035156 C 305.421875 255.199219 304.3125 255.335938 303.203125 255.445312 C 302.09375 255.554688 300.980469 255.636719 299.863281 255.691406 C 298.75 255.746094 297.632812 255.773438 296.515625 255.773438 C 295.398438 255.773438 294.285156 255.746094 293.167969 255.691406 C 292.054688 255.636719 290.941406 255.554688 289.828125 255.445312 C 288.71875 255.335938 287.609375 255.199219 286.503906 255.035156 C 285.398438 254.871094 284.300781 254.679688 283.207031 254.464844 C 282.109375 254.246094 281.019531 254 279.9375 253.730469 C 278.855469 253.457031 277.777344 253.160156 276.710938 252.835938 C 275.640625 252.511719 274.582031 252.164062 273.53125 251.785156 C 272.480469 251.410156 271.4375 251.007812 270.40625 250.582031 C 269.375 250.152344 268.355469 249.703125 267.34375 249.222656 C 266.335938 248.746094 265.339844 248.246094 264.355469 247.71875 C 263.367188 247.191406 262.398438 246.640625 261.441406 246.066406 C 260.480469 245.492188 259.539062 244.894531 258.609375 244.277344 C 257.683594 243.65625 256.769531 243.011719 255.871094 242.347656 C 254.976562 241.683594 254.097656 240.996094 253.234375 240.289062 C 252.371094 239.578125 251.523438 238.851562 250.699219 238.101562 C 249.871094 237.351562 249.0625 236.582031 248.273438 235.792969 C 247.480469 235 246.710938 234.191406 245.960938 233.367188 C 245.214844 232.539062 244.484375 231.691406 243.777344 230.832031 C 243.066406 229.96875 242.378906 229.085938 241.714844 228.191406 C 241.050781 227.292969 240.40625 226.378906 239.785156 225.453125 C 239.167969 224.523438 238.570312 223.582031 237.996094 222.621094 C 237.421875 221.664062 236.871094 220.695312 236.34375 219.710938 C 235.820312 218.722656 235.316406 217.726562 234.839844 216.71875 C 234.363281 215.707031 233.910156 214.6875 233.480469 213.65625 C 233.054688 212.625 232.652344 211.582031 232.277344 210.53125 C 231.902344 209.480469 231.550781 208.421875 231.226562 207.351562 C 230.902344 206.285156 230.605469 205.207031 230.332031 204.125 C 230.0625 203.042969 229.816406 201.953125 229.601562 200.859375 C 229.382812 199.761719 229.191406 198.664062 229.027344 197.558594 C 228.863281 196.453125 228.726562 195.347656 228.617188 194.234375 C 228.507812 193.125 228.425781 192.011719 228.371094 190.894531 C 228.316406 189.78125 228.289062 188.664062 228.289062 187.546875 C 228.289062 186.429688 228.316406 185.316406 228.371094 184.199219 C 228.425781 183.085938 228.507812 181.972656 228.617188 180.859375 C 228.726562 179.75 228.863281 178.640625 229.027344 177.535156 C 229.191406 176.433594 229.382812 175.332031 229.601562 174.238281 C 229.816406 173.140625 230.0625 172.050781 230.332031 170.96875 C 230.605469 169.886719 230.902344 168.808594 231.226562 167.742188 C 231.550781 166.671875 231.902344 165.613281 232.277344 164.5625 C 232.652344 163.511719 233.054688 162.46875 233.480469 161.4375 C 233.910156 160.40625 234.363281 159.386719 234.839844 158.375 C 235.316406 157.367188 235.820312 156.371094 236.34375 155.386719 C 236.871094 154.402344 237.421875 153.429688 237.996094 152.472656 C 238.570312 151.515625 239.167969 150.570312 239.785156 149.640625 C 240.40625 148.714844 241.050781 147.800781 241.714844 146.90625 C 242.378906 146.007812 243.066406 145.128906 243.777344 144.265625 C 244.484375 143.402344 245.214844 142.554688 245.960938 141.730469 C 246.710938 140.902344 247.480469 140.09375 248.273438 139.304688 C 249.0625 138.515625 249.871094 137.746094 250.699219 136.996094 C 251.523438 136.246094 252.371094 135.515625 253.234375 134.808594 C 254.097656 134.097656 254.976562 133.410156 255.871094 132.746094 C 256.769531 132.082031 257.683594 131.4375 258.609375 130.820312 C 259.539062 130.199219 260.480469 129.601562 261.441406 129.027344 C 262.398438 128.453125 263.367188 127.902344 264.355469 127.375 C 265.339844 126.851562 266.335938 126.347656 267.34375 125.871094 C 268.355469 125.394531 269.375 124.941406 270.40625 124.511719 C 271.4375 124.085938 272.480469 123.683594 273.53125 123.308594 C 274.582031 122.933594 275.640625 122.582031 276.710938 122.257812 C 277.777344 121.933594 278.855469 121.636719 279.9375 121.363281 C 281.019531 121.09375 282.109375 120.847656 283.207031 120.632812 C 284.300781 120.414062 285.398438 120.222656 286.503906 120.058594 C 287.609375 119.894531 288.71875 119.757812 289.828125 119.648438 C 290.941406 119.539062 292.054688 119.457031 293.167969 119.402344 C 294.285156 119.347656 295.398438 119.320312 296.515625 119.320312 C 297.632812 119.320312 298.75 119.347656 299.863281 119.402344 C 300.980469 119.457031 302.09375 119.539062 303.203125 119.648438 C 304.316406 119.757812 305.421875 119.894531 306.527344 120.058594 C 307.632812 120.222656 308.730469 120.414062 309.828125 120.632812 C 310.921875 120.847656 312.011719 121.09375 313.09375 121.363281 C 314.175781 121.636719 315.253906 121.933594 316.320312 122.257812 C 317.390625 122.582031 318.449219 122.933594 319.5 123.308594 C 320.550781 123.683594 321.59375 124.085938 322.625 124.511719 C 323.65625 124.941406 324.675781 125.394531 325.6875 125.871094 C 326.695312 126.347656 327.691406 126.851562 328.679688 127.375 C 329.664062 127.902344 330.632812 128.453125 331.589844 129.027344 C 332.550781 129.601562 333.492188 130.199219 334.421875 130.820312 C 335.347656 131.4375 336.261719 132.082031 337.160156 132.746094 C 338.054688 133.410156 338.933594 134.097656 339.796875 134.808594 C 340.660156 135.515625 341.507812 136.246094 342.335938 136.996094 C 343.160156 137.746094 343.96875 138.515625 344.757812 139.304688 C 345.550781 140.09375 346.320312 140.902344 347.070312 141.730469 C 347.820312 142.554688 348.546875 143.402344 349.257812 144.265625 C 349.964844 145.128906 350.652344 146.007812 351.316406 146.90625 C 351.980469 147.800781 352.625 148.714844 353.246094 149.640625 C 353.863281 150.570312 354.460938 151.515625 355.035156 152.472656 C 355.609375 153.429688 356.160156 154.402344 356.6875 155.386719 C 357.214844 156.371094 357.714844 157.367188 358.191406 158.375 C 358.667969 159.386719 359.121094 160.40625 359.550781 161.4375 C 359.976562 162.46875 360.378906 163.511719 360.753906 164.5625 C 361.128906 165.613281 361.480469 166.671875 361.804688 167.742188 C 362.128906 168.808594 362.425781 169.886719 362.699219 170.96875 C 362.96875 172.050781 363.214844 173.140625 363.433594 174.238281 C 363.648438 175.332031 363.839844 176.433594 364.003906 177.535156 C 364.167969 178.640625 364.304688 179.75 364.414062 180.859375 C 364.523438 181.972656 364.605469 183.085938 364.660156 184.199219 C 364.714844 185.316406 364.742188 186.429688 364.742188 187.546875 Z M 364.742188 187.546875 "/><path style=" stroke:none;fill-rule:nonzero;fill:#ffffff;fill-opacity:1;" d="M 87.113281 167.726562 L 100.605469 167.726562 C 111.949219 167.726562 118.933594 174.765625 118.933594 186.667969 C 118.933594 199.582031 112.054688 207.359375 100.171875 207.359375 L 87.113281 207.359375 Z M 94.152344 201.796875 L 100.046875 201.796875 C 107.757812 201.796875 111.695312 196.222656 111.695312 186.808594 C 111.695312 178.652344 107.671875 173.394531 100.113281 173.394531 L 94.160156 173.394531 L 94.160156 201.796875 Z M 94.152344 201.796875 "/><path style=" stroke:none;fill-rule:nonzero;fill:#ffffff;fill-opacity:1;" d="M 131.648438 197.046875 L 128.488281 207.371094 L 121.582031 207.371094 C 122.878906 203.519531 132.519531 172.097656 133.964844 167.734375 L 142.972656 167.734375 L 155.964844 207.371094 L 148.585938 207.371094 L 145.246094 197.046875 Z M 143.796875 191.191406 C 141.023438 182.410156 139.171875 176.65625 138.320312 173.148438 L 138.242188 173.148438 C 137.230469 177.652344 135.347656 183.800781 133.050781 191.191406 Z M 143.796875 191.191406 "/><path style=" stroke:none;fill-rule:nonzero;fill:#ffffff;fill-opacity:1;" d="M 164.28125 207.371094 L 164.28125 192.183594 C 164.28125 191.757812 164.1875 191.332031 163.949219 190.980469 L 151.289062 167.726562 L 159.191406 167.726562 C 162.152344 173.78125 166.390625 182.078125 168.105469 185.578125 C 170.855469 179.910156 174.234375 173.402344 177.035156 167.726562 L 184.359375 167.726562 L 171.566406 190.90625 C 171.347656 191.238281 171.273438 191.53125 171.273438 192.042969 L 171.273438 207.371094 Z M 164.28125 207.371094 "/><path style=" stroke:none;fill-rule:nonzero;fill:#ffdd00;fill-opacity:1;" d="M 317.917969 188.710938 C 317.917969 189.410156 317.882812 190.109375 317.816406 190.808594 C 317.746094 191.503906 317.644531 192.195312 317.507812 192.882812 C 317.371094 193.570312 317.199219 194.25 316.996094 194.917969 C 316.792969 195.589844 316.558594 196.246094 316.289062 196.894531 C 316.023438 197.539062 315.722656 198.171875 315.394531 198.789062 C 315.0625 199.410156 314.703125 200.007812 314.3125 200.589844 C 313.925781 201.171875 313.507812 201.734375 313.0625 202.277344 C 312.621094 202.816406 312.148438 203.335938 311.65625 203.832031 C 311.160156 204.328125 310.640625 204.796875 310.101562 205.242188 C 309.558594 205.683594 308.996094 206.101562 308.414062 206.492188 C 307.832031 206.878906 307.230469 207.238281 306.613281 207.570312 C 305.996094 207.898438 305.363281 208.199219 304.71875 208.464844 C 304.070312 208.734375 303.414062 208.96875 302.742188 209.171875 C 302.070312 209.375 301.394531 209.546875 300.707031 209.683594 C 300.019531 209.820312 299.328125 209.921875 298.628906 209.992188 C 297.933594 210.058594 297.234375 210.09375 296.535156 210.09375 C 295.835938 210.09375 295.136719 210.058594 294.4375 209.992188 C 293.742188 209.921875 293.050781 209.820312 292.363281 209.683594 C 291.675781 209.546875 290.996094 209.375 290.328125 209.171875 C 289.65625 208.96875 289 208.734375 288.351562 208.464844 C 287.703125 208.199219 287.074219 207.898438 286.453125 207.570312 C 285.835938 207.238281 285.238281 206.878906 284.65625 206.492188 C 284.074219 206.101562 283.511719 205.683594 282.96875 205.242188 C 282.429688 204.796875 281.910156 204.328125 281.414062 203.832031 C 280.917969 203.335938 280.449219 202.816406 280.003906 202.277344 C 279.5625 201.734375 279.144531 201.171875 278.753906 200.589844 C 278.367188 200.007812 278.007812 199.410156 277.675781 198.789062 C 277.347656 198.171875 277.046875 197.539062 276.78125 196.894531 C 276.511719 196.246094 276.277344 195.589844 276.074219 194.917969 C 275.871094 194.25 275.699219 193.570312 275.5625 192.882812 C 275.425781 192.195312 275.324219 191.503906 275.253906 190.808594 C 275.1875 190.109375 275.152344 189.410156 275.152344 188.710938 C 275.152344 188.011719 275.1875 187.3125 275.253906 186.613281 C 275.324219 185.917969 275.425781 185.226562 275.5625 184.539062 C 275.699219 183.851562 275.871094 183.175781 276.074219 182.503906 C 276.277344 181.832031 276.511719 181.175781 276.78125 180.527344 C 277.046875 179.882812 277.347656 179.25 277.675781 178.632812 C 278.007812 178.011719 278.367188 177.414062 278.753906 176.832031 C 279.144531 176.25 279.5625 175.6875 280.003906 175.144531 C 280.449219 174.605469 280.917969 174.085938 281.414062 173.589844 C 281.910156 173.097656 282.429688 172.625 282.96875 172.183594 C 283.511719 171.738281 284.074219 171.320312 284.65625 170.933594 C 285.238281 170.542969 285.835938 170.183594 286.453125 169.851562 C 287.074219 169.523438 287.703125 169.222656 288.351562 168.957031 C 289 168.6875 289.65625 168.453125 290.328125 168.25 C 290.996094 168.046875 291.675781 167.875 292.363281 167.738281 C 293.050781 167.601562 293.742188 167.5 294.4375 167.429688 C 295.136719 167.363281 295.835938 167.328125 296.535156 167.328125 C 297.234375 167.328125 297.933594 167.363281 298.628906 167.429688 C 299.328125 167.5 300.019531 167.601562 300.707031 167.738281 C 301.394531 167.875 302.070312 168.046875 302.742188 168.25 C 303.414062 168.453125 304.070312 168.6875 304.71875 168.957031 C 305.363281 169.222656 305.996094 169.523438 306.613281 169.851562 C 307.230469 170.183594 307.832031 170.542969 308.414062 170.933594 C 308.996094 171.320312 309.558594 171.738281 310.101562 172.183594 C 310.640625 172.625 311.160156 173.097656 311.65625 173.589844 C 312.148438 174.085938 312.621094 174.605469 313.0625 175.144531 C 313.507812 175.6875 313.925781 176.25 314.3125 176.832031 C 314.703125 177.414062 315.0625 178.011719 315.394531 178.632812 C 315.722656 179.25 316.023438 179.882812 316.289062 180.527344 C 316.558594 181.175781 316.792969 181.832031 316.996094 182.503906 C 317.199219 183.175781 317.371094 183.851562 317.507812 184.539062 C 317.644531 185.226562 317.746094 185.917969 317.816406 186.613281 C 317.882812 187.3125 317.917969 188.011719 317.917969 188.710938 Z M 317.917969 188.710938 "/><path style=" stroke:none;fill-rule:nonzero;fill:#ffdd00;fill-opacity:1;" d="M 295.183594 141.933594 L 297.878906 141.933594 L 297.878906 158.378906 L 295.183594 158.378906 Z M 295.183594 141.933594 "/><path style=" stroke:none;fill-rule:nonzero;fill:#ffdd00;fill-opacity:1;" d="M 265.421875 153.78125 L 267.484375 152.046875 L 278.058594 164.640625 L 275.996094 166.375 Z M 265.421875 153.78125 "/><path style=" stroke:none;fill-rule:nonzero;fill:#ffdd00;fill-opacity:1;" d="M 250.207031 181.941406 L 250.671875 179.285156 L 266.871094 182.125 L 266.40625 184.78125 Z M 250.207031 181.941406 "/><path style=" stroke:none;fill-rule:nonzero;fill:#ffdd00;fill-opacity:1;" d="M 255.371094 210.988281 L 269.601562 202.746094 L 270.953125 205.078125 L 256.722656 213.320312 Z M 255.371094 210.988281 "/><path style=" stroke:none;fill-rule:nonzero;fill:#ffdd00;fill-opacity:1;" d="M 279.335938 232.242188 L 284.929688 216.777344 L 287.46875 217.695312 L 281.871094 233.160156 Z M 279.335938 232.242188 "/><path style=" stroke:none;fill-rule:nonzero;fill:#ffdd00;fill-opacity:1;" d="M 305.703125 217.644531 L 308.234375 216.71875 L 313.894531 232.15625 L 311.363281 233.085938 Z M 305.703125 217.644531 "/><path style=" stroke:none;fill-rule:nonzero;fill:#ffdd00;fill-opacity:1;" d="M 322.160156 204.972656 L 323.5 202.632812 L 337.765625 210.816406 L 336.421875 213.15625 Z M 322.160156 204.972656 "/><path style=" stroke:none;fill-rule:nonzero;fill:#ffdd00;fill-opacity:1;" d="M 326.140625 182.027344 L 342.324219 179.121094 L 342.804688 181.773438 L 326.617188 184.683594 Z M 326.140625 182.027344 "/><path style=" stroke:none;fill-rule:nonzero;fill:#ffdd00;fill-opacity:1;" d="M 314.90625 164.539062 L 325.433594 151.902344 L 327.503906 153.628906 L 316.980469 166.261719 Z M 314.90625 164.539062 "/></g></svg>